<?xml version="1.0" standalone="no"?>
<!DOCTYPE svg PUBLIC "-//W3C//DTD SVG 20010904//EN"
 "http://www.w3.org/TR/2001/REC-SVG-20010904/DTD/svg10.dtd">
<svg version="1.0" xmlns="http://www.w3.org/2000/svg"
 width="352.000000pt" height="299.000000pt" viewBox="0 0 352.000000 299.000000"
 preserveAspectRatio="xMidYMid meet">

<g transform="translate(0.000000,299.000000) scale(0.100000,-0.100000)"
fill="#000000" stroke="none">
<path d="M2001 2964 c-66 -18 -350 -136 -561 -233 -316 -147 -677 -345 -985
-542 -403 -258 -440 -293 -440 -423 0 -55 5 -79 22 -108 l21 -36 -21 -44 c-82
-166 68 -348 262 -317 47 7 470 182 481 199 3 4 16 11 29 15 24 7 24 7 -7 21
-24 10 -32 19 -32 39 0 28 15 34 24 8 9 -22 22 -6 30 36 l6 35 -23 -22 c-44
-41 -49 -33 -51 85 -1 28 4 40 19 48 25 13 21 41 -7 48 -19 5 -20 8 -8 24 12
15 12 16 0 6 -27 -25 -37 -14 -44 48 -4 33 -9 66 -12 74 -8 20 97 37 112 18
15 -17 35 -17 28 1 -6 16 5 21 99 37 39 6 72 8 77 3 11 -12 62 -292 55 -304
-3 -5 -1 -11 5 -15 5 -3 10 -22 10 -41 0 -19 2 -34 4 -34 2 0 29 11 60 25 31
14 56 23 56 20 0 -2 -24 -22 -53 -45 l-53 -40 17 -97 c9 -54 14 -102 11 -108
-4 -5 -7 -19 -7 -30 0 -15 -7 -20 -25 -20 -18 0 -26 -6 -28 -23 -3 -21 -2 -21
25 -10 15 7 31 17 35 23 12 17 19 -1 33 -86 8 -46 28 -162 45 -258 17 -96 29
-183 27 -193 -3 -10 -1 -18 3 -18 5 0 12 -24 17 -53 7 -40 6 -57 -5 -75 -8
-12 -13 -25 -10 -27 3 -3 31 -10 64 -16 81 -15 219 -5 339 26 55 14 103 25
107 25 5 0 8 -16 8 -35 0 -39 22 -100 45 -125 13 -14 12 -23 -5 -67 -28 -74
-35 -145 -19 -201 18 -65 96 -143 162 -161 121 -34 258 33 297 146 9 25 29 40
108 81 113 58 360 175 726 343 143 66 270 128 282 140 12 12 32 44 44 72 18
42 21 64 18 119 -5 57 -2 70 13 84 11 9 32 44 49 77 87 173 -22 355 -228 383
l-52 7 23 31 c48 63 61 98 61 171 0 59 -4 79 -29 124 -32 59 -82 105 -133 123
-29 11 -32 15 -25 38 4 14 8 50 7 80 -1 64 -26 120 -76 166 -54 52 -88 64
-178 64 -73 0 -97 -9 -70 -25 6 -4 8 -16 4 -27 -3 -11 -1 -30 5 -42 5 -11 17
-57 25 -101 16 -91 9 -110 -35 -101 -15 3 -29 1 -31 -4 -3 -9 -441 -90 -485
-90 -13 0 -24 8 -28 20 -5 16 -12 19 -33 14 -39 -10 -40 -14 -4 -14 22 0 32
-5 32 -15 0 -8 -1 -15 -3 -15 -2 0 -66 -11 -143 -25 -76 -14 -140 -25 -141
-25 -2 0 -3 8 -4 18 0 13 -2 14 -6 2 -8 -21 -24 -30 -54 -30 -25 0 -26 2 -52
157 -15 86 -24 160 -20 164 11 10 262 51 273 44 5 -3 11 -1 15 5 8 13 55 13
55 0 0 -5 11 -10 25 -10 13 0 28 -7 33 -16 7 -13 13 -14 28 -6 18 10 17 11 -9
21 -66 25 -29 37 291 91 l72 12 0 46 c0 62 -37 140 -85 179 -37 31 -100 53
-151 53 l-27 0 20 23 c50 54 69 129 52 207 -14 66 -80 142 -154 176 -59 28
-158 31 -244 8z m-244 -977 c12 -67 18 -125 14 -130 -6 -6 -249 -53 -399 -76
-31 -5 -97 -16 -145 -26 -49 -9 -94 -14 -100 -12 -13 4 -57 234 -50 253 2 7
29 15 60 19 60 7 62 8 173 29 56 10 77 11 82 2 6 -8 8 -8 8 1 0 13 104 38 125
29 8 -3 15 -1 17 3 3 9 168 39 184 34 5 -2 19 -59 31 -126z m1046 -94 c-15
-27 -34 -57 -43 -68 -9 -11 -20 -28 -24 -39 -4 -13 -13 -17 -30 -14 -14 3 -34
-3 -47 -13 -22 -16 -22 -18 -6 -24 9 -4 24 -2 32 5 9 7 18 10 22 6 8 -8 -29
-76 -39 -70 -4 3 -5 -1 -3 -9 3 -7 -46 -100 -109 -205 -63 -106 -131 -221
-151 -257 -30 -54 -42 -65 -68 -70 -228 -42 -343 -60 -345 -54 -2 4 68 128
155 275 86 148 169 293 183 322 15 29 34 58 44 65 9 6 18 22 20 34 6 29 33 80
48 90 12 7 332 70 370 72 14 1 13 -6 -9 -46z m-1017 -367 c3 -23 8 -50 10 -61
29 -155 29 -145 6 -145 -10 0 -22 -4 -27 -9 -6 -5 -71 -19 -145 -31 -74 -11
-168 -28 -208 -37 -40 -8 -87 -13 -103 -9 -21 4 -36 1 -46 -9 -18 -18 -47 -19
-60 -2 -9 11 -33 136 -33 173 0 13 3 14 15 4 10 -8 15 -9 15 -1 0 6 -9 16 -20
23 -20 13 -28 58 -11 58 4 0 20 -9 34 -20 32 -26 45 -26 22 0 -20 22 -16 25
45 33 53 7 384 67 395 72 6 2 31 3 57 3 47 -2 47 -2 54 -42z m1179 -338 c3
-18 7 -46 10 -63 3 -16 13 -68 21 -115 8 -47 17 -92 20 -101 4 -15 -48 -27
-281 -64 -11 -2 -32 -6 -47 -10 -18 -5 -28 -3 -28 4 0 6 -7 11 -15 11 -8 0
-24 9 -34 19 -17 17 -21 18 -32 5 -9 -11 -8 -14 9 -14 16 0 39 -27 30 -35 -6
-5 -530 -95 -554 -95 -25 0 -25 0 -29 80 0 14 -6 38 -13 53 -7 16 -12 37 -12
47 0 10 -5 41 -12 69 -12 55 -1 85 28 74 9 -3 25 -1 37 5 28 14 497 96 504 88
4 -3 11 -2 17 3 6 5 83 21 171 36 88 15 162 29 164 31 2 2 12 4 22 4 13 0 20
-10 24 -32z"/>
<path d="M2526 1784 c-11 -8 -30 -14 -42 -14 -13 0 -25 -4 -28 -8 -3 -5 5 -8
17 -8 12 1 21 -4 20 -10 -1 -6 9 -11 23 -11 17 0 26 6 30 23 9 34 2 44 -20 28z"/>
<path d="M2388 1693 c7 -3 16 -2 19 1 4 3 -2 6 -13 5 -11 0 -14 -3 -6 -6z"/>
<path d="M1575 1510 c3 -5 11 -10 16 -10 6 0 7 5 4 10 -3 6 -11 10 -16 10 -6
0 -7 -4 -4 -10z"/>
<path d="M1661 1483 c18 -29 35 -35 49 -17 10 11 8 14 -12 14 -13 0 -30 6 -37
13 -11 9 -11 7 0 -10z"/>
<path d="M1231 1253 c1 -17 3 -21 6 -10 2 9 9 17 14 17 6 0 7 5 4 10 -12 19
-25 10 -24 -17z"/>
<path d="M2580 1122 c0 -14 11 -21 26 -15 8 3 11 9 8 14 -7 11 -34 12 -34 1z"/>
<path d="M2350 1005 c0 -8 2 -15 4 -15 2 0 6 7 10 15 3 8 1 15 -4 15 -6 0 -10
-7 -10 -15z"/>
<path d="M2087 905 c-4 -8 -2 -17 3 -20 6 -4 10 3 10 14 0 25 -6 27 -13 6z"/>
<path d="M2160 856 c0 -8 5 -18 10 -21 6 -3 10 1 10 9 0 8 -4 18 -10 21 -5 3
-10 -1 -10 -9z"/>
<path d="M2188 813 c7 -3 16 -2 19 1 4 3 -2 6 -13 5 -11 0 -14 -3 -6 -6z"/>
<path d="M2641 2174 c0 -11 3 -14 6 -6 3 7 2 16 -1 19 -3 4 -6 -2 -5 -13z"/>
<path d="M2716 2137 c3 -10 9 -15 12 -12 3 3 0 11 -7 18 -10 9 -11 8 -5 -6z"/>
<path d="M2111 2064 c0 -11 3 -14 6 -6 3 7 2 16 -1 19 -3 4 -6 -2 -5 -13z"/>
<path d="M2450 2016 c0 -9 5 -16 10 -16 6 0 10 4 10 9 0 6 -4 13 -10 16 -5 3
-10 -1 -10 -9z"/>
<path d="M2718 1983 c7 -3 16 -2 19 1 4 3 -2 6 -13 5 -11 0 -14 -3 -6 -6z"/>
<path d="M1001 1924 c0 -11 3 -14 6 -6 3 7 2 16 -1 19 -3 4 -6 -2 -5 -13z"/>
<path d="M807 1905 c-4 -8 -13 -15 -22 -15 -8 0 -15 -4 -15 -10 0 -5 -7 -10
-15 -10 -11 0 -10 -5 6 -21 13 -13 29 -19 41 -16 11 3 21 0 25 -9 3 -8 9 -12
13 -9 9 6 1 51 -15 82 -10 19 -14 21 -18 8z"/>
<path d="M950 1870 c-8 -5 -12 -12 -9 -15 4 -3 12 1 19 10 14 17 11 19 -10 5z"/>
<path d="M950 1690 c0 -5 5 -10 11 -10 5 0 7 5 4 10 -3 6 -8 10 -11 10 -2 0
-4 -4 -4 -10z"/>
<path d="M851 1674 c0 -11 3 -14 6 -6 3 7 2 16 -1 19 -3 4 -6 -2 -5 -13z"/>
<path d="M816 1645 c4 -8 10 -12 15 -9 14 8 10 24 -6 24 -9 0 -12 -6 -9 -15z"/>
<path d="M908 1623 c7 -3 16 -2 19 1 4 3 -2 6 -13 5 -11 0 -14 -3 -6 -6z"/>
<path d="M843 1565 c-14 -15 -3 -28 12 -17 12 9 18 32 8 32 -5 -1 -14 -7 -20
-15z"/>
<path d="M893 1553 c9 -2 17 -13 17 -24 0 -16 3 -17 25 -7 23 10 23 12 7 24
-9 7 -28 13 -42 13 -17 -1 -19 -3 -7 -6z"/>
<path d="M1020 1455 c-7 -9 -10 -18 -6 -22 3 -3 6 -1 6 5 0 6 8 12 18 14 11 2
13 6 6 11 -7 4 -17 0 -24 -8z"/>
<path d="M898 1405 c-3 -4 0 -18 7 -32 12 -23 12 -28 -2 -38 -14 -11 -14 -12
1 -18 11 -4 16 -1 17 11 3 43 -11 89 -23 77z"/>
<path d="M751 1294 c-23 -20 -51 -55 -63 -78 -29 -55 -30 -147 -3 -201 16 -33
18 -48 11 -83 -26 -125 80 -271 198 -272 27 0 28 1 23 37 -4 21 -2 42 5 50 6
7 6 13 1 13 -5 0 -14 19 -21 43 -20 71 -54 279 -49 299 3 10 2 18 -2 18 -11 0
-30 114 -21 124 5 5 2 15 -6 23 -8 8 -14 25 -14 39 0 32 -9 30 -59 -12z"/>
<path d="M921 1244 c0 -11 3 -14 6 -6 3 7 2 16 -1 19 -3 4 -6 -2 -5 -13z"/>
<path d="M985 1230 c-5 -9 46 -50 62 -50 4 0 0 5 -9 11 -10 5 -18 16 -18 23 0
16 -27 29 -35 16z"/>
<path d="M910 1190 c6 -11 15 -20 20 -20 17 0 11 15 -11 28 -19 12 -19 11 -9
-8z"/>
<path d="M960 1149 c0 -5 5 -7 10 -4 6 3 10 8 10 11 0 2 -4 4 -10 4 -5 0 -10
-5 -10 -11z"/>
<path d="M1127 1094 c-3 -3 -3 -12 0 -20 4 -10 8 -11 18 -1 7 7 11 15 8 20 -5
9 -17 9 -26 1z"/>
<path d="M1120 980 c0 -5 5 -10 10 -10 6 0 10 5 10 10 0 6 -4 10 -10 10 -5 0
-10 -4 -10 -10z"/>
<path d="M1177 795 c-4 -8 -2 -17 3 -20 6 -4 10 3 10 14 0 25 -6 27 -13 6z"/>
<path d="M1021 729 c-21 -20 -21 -22 -5 -40 16 -18 46 -21 61 -6 4 4 -3 10
-15 14 -26 6 -29 28 -4 42 14 9 14 10 1 11 -8 0 -25 -9 -38 -21z"/>
<path d="M1112 699 c-9 -14 -10 -19 -2 -14 7 4 16 1 21 -6 4 -7 11 -10 16 -6
4 5 3 11 -3 15 -6 4 -13 13 -15 20 -3 8 -9 5 -17 -9z"/>
</g>
</svg>
